<?xml version="1.0" encoding="utf-8"?>
<!DOCTYPE svg PUBLIC "-//W3C//DTD SVG 1.0//EN" "http://www.w3.org/TR/2001/REC-SVG-20010904/DTD/svg10.dtd">
<svg version="1.0" xmlns="http://www.w3.org/2000/svg" width="1024px" height="1024px" viewBox="0 0 1024 1024" preserveAspectRatio="xMidYMid meet">
 <g fill="#f7f5f0">
  <path d="M499.8 958.3 c-1 -0.2 -1.8 -1.1 -1.8 -1.9 0 -1.1 2.6 -1.4 14.5 -1.4 11.7 0 14.5 0.3 14.5 1.4 0 0.7 -1 1.6 -2.2 2 -2.6 0.7 -22.4 0.6 -25 -0.1z"/>
  <path d="M477.8 957.3 c-1 -0.2 -1.8 -1.1 -1.8 -1.9 0 -1 1.3 -1.4 4.5 -1.4 3.8 0 4.5 0.3 4.5 2 0 1.5 -0.6 2 -2.7 1.9 -1.6 -0.1 -3.6 -0.3 -4.5 -0.6z"/>
  <path d="M543 956 c0 -1.6 0.7 -2 3.5 -2 4 0 4.9 2.4 1.3 3.4 -3.8 1 -4.8 0.7 -4.8 -1.4z"/>
  <path d="M466.8 956.3 c-3.6 -0.9 -2 -3.3 2.2 -3.3 3.3 0 4 0.3 4 2 0 2 -2 2.4 -6.2 1.3z"/>
  <path d="M457.8 955.3 c-3.6 -0.9 -2 -3.3 2.2 -3.3 3.3 0 4 0.3 4 2 0 2 -2 2.4 -6.2 1.3z"/>
  <path d="M571 953.2 c0 -1.5 1.3 -2.1 7.8 -3 10 -1.6 12.2 -1.5 12.2 0.2 0 1.5 -1.4 1.9 -12 3.6 -8.3 1.3 -8 1.3 -8 -0.8z"/>
  <path d="M437.5 952.5 c-0.5 -0.2 -2.7 -0.6 -4.7 -1 -2.4 -0.4 -3.8 -1.1 -3.8 -2 0 -1.7 2.2 -1.8 9.4 -0.9 3.6 0.5 4.6 1.1 4.6 2.5 0 1.8 -2.5 2.4 -5.5 1.4z"/>
  <path d="M613 945 c0 -1.6 0.7 -2 3.5 -2 4 0 4.9 2.4 1.3 3.4 -3.8 1 -4.8 0.7 -4.8 -1.4z"/>
  <path d="M400.8 944.8 c-4.2 -1.1 -5.2 -3.8 -1.4 -3.8 5.2 0 8.6 1.2 8.6 3.1 0 2.1 -1.4 2.2 -7.2 0.7z"/>
  <path d="M625 942 c0 -1.6 0.7 -2 3.5 -2 4 0 4.9 2.4 1.3 3.4 -3.8 1 -4.8 0.7 -4.8 -1.4z"/>
  <path d="M384.3 940.2 c-6.2 -1.7 -7.2 -4.2 -1.8 -4.2 1.9 0 3.5 0.5 3.5 1 0 0.6 1.6 1 3.5 1 2.8 0 3.5 0.4 3.5 2 0 2.4 -1.4 2.4 -8.7 0.2z"/>
  <path d="M361.3 932.5 c-4.3 -1.8 -4.2 -3.5 0.2 -3.5 3.1 0 3.5 0.3 3.5 2.5 0 1.4 -0.1 2.5 -0.2 2.5 -0.2 -0.1 -1.8 -0.7 -3.5 -1.5z"/>
  <path d="M350.3 928.5 c-4.3 -1.8 -4.2 -3.5 0.2 -3.5 3.1 0 3.5 0.3 3.5 2.5 0 1.4 -0.1 2.5 -0.2 2.5 -0.2 -0.1 -1.8 -0.7 -3.5 -1.5z"/>
  <path d="M712 908.5 c0 -2.2 0.4 -2.5 3.5 -2.5 4.3 0 4.4 1 0.6 3.3 -3.8 2.2 -4.1 2.2 -4.1 -0.8z"/>
  <path d="M238 864 l-3.5 -2.9 3.8 -0.1 c3.5 0 3.7 0.2 3.7 3 0 1.7 -0.1 3 -0.3 3 -0.1 0 -1.8 -1.3 -3.7 -3z"/>
  <path d="M799 850.1 c0 -2.9 0.3 -3.1 3.6 -3.1 3.9 0 3.8 0.9 -0.6 4 l-3 2.1 0 -3z"/>
  <path d="M212.5 842.6 l-4 -3.5 3.8 -0.1 c4 0 5.1 1.2 4.5 5 -0.3 2 -0.5 2 -4.3 -1.4z"/>
  <path d="M829 821.9 c0 -4.4 2.7 -7.2 6.6 -6.7 l2.7 0.3 -4.6 5 -4.6 5 -0.1 -3.6z"/>
  <path d="M187.7 818 l-3.8 -4.5 2.7 -0.3 c3.6 -0.5 5.6 1.8 5.2 5.9 l-0.3 3.3 -3.8 -4.4z"/>
  <path d="M839 811 c0 -3.9 1.4 -6 4.1 -6 1.2 0 1.9 -0.9 2.1 -2.7 0.2 -2.4 0.8 -2.9 3.7 -3.1 l3.3 -0.3 -2 2.8 c-1.1 1.5 -4.1 5.1 -6.6 7.8 l-4.5 5 -0.1 -3.5z"/>
  <path d="M179.8 809 l-2.8 -3.5 2.6 -0.3 c3.3 -0.4 3.6 -0.1 3.2 3.9 l-0.3 3.4 -2.7 -3.5z"/>
  <path d="M170.2 797.5 l-3.3 -4 2.7 -0.3 c3.5 -0.5 4.6 0.8 4.2 4.9 l-0.3 3.4 -3.3 -4z"/>
  <path d="M162.8 788 l-2.8 -3.5 2.6 -0.3 c3.3 -0.4 3.6 -0.1 3.2 3.9 l-0.3 3.4 -2.7 -3.5z"/>
  <path d="M862 782.6 c0 -3.3 0.2 -3.6 3.1 -3.6 l3 0 -2.1 3 c-3.1 4.4 -4 4.5 -4 0.6z"/>
  <path d="M156.8 780 l-2.8 -3.5 2.6 -0.3 c3.3 -0.4 3.6 -0.1 3.2 3.9 l-0.3 3.4 -2.7 -3.5z"/>
  <path d="M868 774.6 c0 -3.3 0.2 -3.6 3.1 -3.6 l3 0 -2.1 3 c-3.1 4.4 -4 4.5 -4 0.6z"/>
  <path d="M146.9 766 c-4.1 -5.4 -7.9 -11.4 -7.9 -12.2 0 -0.5 1.1 -0.8 2.5 -0.8 1.6 0 2.5 0.6 2.5 1.5 0 0.8 0.5 1.5 1 1.5 0.6 0 1 0.7 1 1.5 0 0.8 0.5 1.5 1 1.5 0.6 0 1 0.6 1 1.4 0 0.8 0.5 1.6 1.1 1.8 0.6 0.2 0.9 1.9 0.7 3.8 l-0.3 3.5 -2.6 -3.5z"/>
  <path d="M352.4 749.2 c-30.4 -22.2 -50.5 -54.7 -56.9 -91.7 -2.4 -14 -2.5 -41.4 -0.1 -55.5 7 -40.9 30.6 -77.5 67.8 -105.1 17.4 -12.9 32.8 -21.2 64.3 -34.9 35.5 -15.4 50.2 -23.3 65.5 -35.7 7.8 -6.3 20.4 -18.9 25.4 -25.6 2.5 -3.2 2.7 -3.9 1.5 -5.4 -0.8 -0.9 -12.8 -11.5 -26.6 -23.5 -13.9 -12.1 -25.9 -22.9 -26.8 -24.1 -2 -2.9 -2 -14.8 0 -18.7 0.9 -1.6 2.8 -3.6 4.3 -4.4 3 -1.5 52.8 -18 109.2 -36.1 20.1 -6.5 53.4 -17.3 74 -24.2 20.6 -6.8 43.9 -14.4 51.8 -16.9 7.8 -2.5 19 -6.3 24.8 -8.5 8.4 -3 12.1 -3.9 17.1 -3.9 6.1 0 6.7 0.2 9.9 3.4 3.2 3.2 3.4 3.8 3.4 10.5 0 7.9 0.2 7.2 -25.5 113.1 -8.5 35.5 -21.2 87.9 -28.1 116.5 -8.5 35.1 -13.3 53.1 -14.7 55.3 -4.4 6.6 -17 9.4 -24.3 5.4 -1.7 -0.9 -18.5 -16.8 -37.3 -35.3 -27.8 -27.4 -34.1 -34.1 -34.1 -36.3 0 -1.8 2.1 -5.1 7 -10.7 3.8 -4.4 9.5 -11.6 12.7 -15.9 8.3 -11.4 8.5 -11.4 24.8 5 7.1 7.2 13.2 13 13.5 13 0.3 0 1.1 -2.6 1.9 -5.7 0.7 -3.2 6 -25.1 11.7 -48.8 13.2 -54.5 20.2 -83.5 21.8 -90.6 l1.4 -5.7 -14.7 4.9 c-11.4 3.9 -89.9 29.2 -123 39.8 l-5.3 1.7 15.1 13.8 15.1 13.8 0 6 c0 16.7 -23.1 53.6 -46.2 73.8 -18.9 16.5 -35.2 26.1 -75.8 44.8 -32.8 15.1 -46.4 23.1 -64.9 38.2 -18.6 15.3 -28.5 27 -35.9 42.7 -15.7 33.2 -13 66.7 8 97.7 4.8 7 18.3 21.3 23.3 24.7 2.9 2 3.5 3 3.5 6 0 3.1 -1.7 5.7 -13.7 20.2 -15.7 19.3 -16 19.4 -24.9 12.9z"/>
  <path d="M133.7 746.1 c-2.2 -3.8 -2.2 -4.1 0.8 -4.1 2.2 0 2.5 0.4 2.5 3.5 0 4.3 -1 4.4 -3.3 0.6z"/>
  <path d="M888 744.5 c0 -3.1 0.3 -3.5 2.5 -3.5 3 0 3 0.3 0.8 4.1 -2.3 3.8 -3.3 3.7 -3.3 -0.6z"/>
  <path d="M122.7 727.1 c-2.2 -3.8 -2.2 -4.1 0.8 -4.1 2.2 0 2.5 0.4 2.5 3.5 0 4.3 -1 4.4 -3.3 0.6z"/>
  <path d="M105.6 691.1 c-0.3 -0.4 -1 -2 -1.5 -3.5 -1 -2.4 -0.8 -2.6 1.4 -2.6 2.2 0 2.5 0.4 2.5 3.5 0 3.3 -1.2 4.6 -2.4 2.6z"/>
  <path d="M83.6 631.8 c-1 -3.8 -0.7 -4.8 1.4 -4.8 1.6 0 2 0.7 2 3.5 0 4 -2.4 4.9 -3.4 1.3z"/>
  <path d="M79.1 614.6 c-1.5 -6 -1.4 -6.6 0.8 -6.6 1.9 0 3.1 3.4 3.1 8.6 0 4.1 -2.7 2.7 -3.9 -2z"/>
  <path d="M942 610.5 c0 -2.8 0.4 -3.5 2 -3.5 2.1 0 2.4 1 1.4 4.8 -1 3.6 -3.4 2.7 -3.4 -1.3z"/>
  <path d="M75.6 598.8 c-1 -3.8 -0.7 -4.8 1.4 -4.8 1.6 0 2 0.7 2 3.5 0 4 -2.4 4.9 -3.4 1.3z"/>
  <path d="M948 578.5 c0 -2.8 0.4 -3.5 2 -3.5 2.1 0 2.4 1 1.4 4.8 -1 3.6 -3.4 2.7 -3.4 -1.3z"/>
  <path d="M949 570.5 c0 -2.8 0.4 -3.5 2 -3.5 2.1 0 2.4 1 1.4 4.8 -1 3.6 -3.4 2.7 -3.4 -1.3z"/>
  <path d="M70.6 566.8 c-1 -3.8 -0.7 -4.8 1.4 -4.8 1.6 0 2 0.7 2 3.5 0 4 -2.4 4.9 -3.4 1.3z"/>
  <path d="M69.6 556.8 c-1.1 -4.2 -0.7 -5.8 1.4 -5.8 1.7 0 2 0.7 2 4 0 4.5 -2.3 5.7 -3.4 1.8z"/>
  <path d="M951 552.5 c0 -2.8 0.4 -3.5 2 -3.5 2.1 0 2.4 1 1.4 4.8 -1 3.6 -3.4 2.7 -3.4 -1.3z"/>
  <path d="M68.6 543.8 c-1.1 -4.2 -0.7 -5.8 1.4 -5.8 1.7 0 2 0.7 2 4 0 4.5 -2.3 5.7 -3.4 1.8z"/>
  <path d="M952 539 c0 -3.3 0.3 -4 2 -4 2.1 0 2.5 1.6 1.4 5.8 -1.1 3.9 -3.4 2.7 -3.4 -1.8z"/>
  <path d="M952 489.5 c0 -4 0.4 -5.5 1.4 -5.5 1.6 0 2.6 3 2.6 7.8 0 2.5 -0.4 3.2 -2 3.2 -1.8 0 -2 -0.7 -2 -5.5z"/>
  <path d="M68 483.8 c0 -3 1.3 -5.8 2.6 -5.8 0.9 0 1.4 1.2 1.4 3.5 0 2.8 -0.4 3.5 -2 3.5 -1.1 0 -2 -0.6 -2 -1.2z"/>
  <path d="M951 475.5 c0 -4.9 2.3 -6.4 3.4 -2.2 1.2 4.4 0.7 6.7 -1.4 6.7 -1.7 0 -2 -0.7 -2 -4.5z"/>
  <path d="M69 472.3 c0 -3.4 1.2 -6.3 2.6 -6.3 1 0 1.4 1.3 1.4 4 0 3.3 -0.3 4 -2 4 -1.2 0 -2 -0.7 -2 -1.7z"/>
  <path d="M950 465 c0 -4.5 2.3 -5.7 3.4 -1.7 1.1 4.1 0.7 5.7 -1.4 5.7 -1.7 0 -2 -0.7 -2 -4z"/>
  <path d="M949 456.2 c0 -1.5 -1.1 -9.6 -2.5 -18 -2.9 -17.7 -3 -19.2 -1.1 -19.2 1.7 0 2.8 4.5 5.6 24 2.4 16.5 2.4 16 0 16 -1.5 0 -2 -0.7 -2 -2.8z"/>
  <path d="M73.5 437.3 c1 -7.6 1.6 -9.3 3.1 -9.3 1.5 0 1.7 2.3 0.8 9.4 -0.5 3.7 -1.1 4.6 -2.6 4.6 -1.8 0 -2 -0.5 -1.3 -4.7z"/>
  <path d="M76 423.8 c0 -3 1.3 -5.8 2.6 -5.8 0.9 0 1.4 1.2 1.4 3.5 0 2.8 -0.4 3.5 -2 3.5 -1.1 0 -2 -0.6 -2 -1.2z"/>
  <path d="M78 414.8 c0 -3 1.3 -5.8 2.6 -5.8 0.9 0 1.4 1.2 1.4 3.5 0 2.8 -0.4 3.5 -2 3.5 -1.1 0 -2 -0.6 -2 -1.2z"/>
  <path d="M939.7 404.8 c-2.1 -8.8 -2.2 -11.8 -0.3 -11.8 0.9 0 2.1 3 3.5 8.5 2.6 10.2 2.6 10.5 0.3 10.5 -1.5 0 -2.2 -1.5 -3.5 -7.2z"/>
  <path d="M83 395 c0 -0.6 0.7 -3.7 1.7 -7 1.8 -6.8 4.3 -8.2 4.3 -2.5 0 1.9 -0.4 3.5 -1 3.5 -0.5 0 -1 1.6 -1 3.5 0 2.8 -0.4 3.5 -2 3.5 -1.1 0 -2 -0.5 -2 -1z"/>
  <path d="M934 382.5 c0 -4 2.4 -4.9 3.4 -1.2 1 3.7 0.7 4.7 -1.4 4.7 -1.6 0 -2 -0.7 -2 -3.5z"/>
  <path d="M94.3 358.8 c1.9 -4.6 3.7 -4.8 3.7 -0.4 0 3.2 -0.3 3.6 -2.5 3.6 -2.4 0 -2.5 -0.1 -1.2 -3.2z"/>
  <path d="M923 351.5 c0 -1.4 -0.4 -2.5 -1 -2.5 -0.5 0 -1 -1.6 -1 -3.5 0 -1.9 0.4 -3.5 0.9 -3.5 1.2 0 1.5 0.5 4 6.8 l2.1 5.2 -2.5 0 c-2 0 -2.5 -0.5 -2.5 -2.5z"/>
  <path d="M915 331.4 c0 -4.4 1.8 -4.2 3.7 0.4 1.3 3.1 1.2 3.2 -1.2 3.2 -2.2 0 -2.5 -0.4 -2.5 -3.6z"/>
  <path d="M110.1 321.3 c2 -5.2 9.1 -18.3 10 -18.3 1.5 0 1 5.7 -0.8 9.5 -0.9 1.9 -2.3 3.5 -3 3.5 -0.7 0 -1.3 1.1 -1.3 2.4 0 3.9 -1.1 5.6 -3.6 5.6 -2.1 0 -2.3 -0.2 -1.3 -2.7z"/>
  <path d="M909.6 322.4 c-0.9 -2.5 -0.7 -7.4 0.4 -7.4 1 0 2.4 2.2 4 6.4 0.9 2.3 0.7 2.6 -1.4 2.6 -1.3 0 -2.7 -0.7 -3 -1.6z"/>
  <path d="M905 310.5 c0 -4.3 1.4 -4.5 3.5 -0.5 2 3.8 1.9 4 -1 4 -2.2 0 -2.5 -0.4 -2.5 -3.5z"/>
  <path d="M124 294.4 c0 -1.2 3.4 -6.4 4.2 -6.4 0.4 0 0.8 1.6 0.8 3.5 0 3.1 -0.3 3.5 -2.5 3.5 -1.4 0 -2.5 -0.3 -2.5 -0.6z"/>
  <path d="M895 291.5 c0 -4.3 1 -4.4 3.3 -0.6 2.2 3.8 2.2 4.1 -0.8 4.1 -2.2 0 -2.5 -0.4 -2.5 -3.5z"/>
  <path d="M136 274.4 c0 -1.2 3.4 -6.4 4.2 -6.4 0.4 0 0.8 1.6 0.8 3.5 0 3.1 -0.3 3.5 -2.5 3.5 -1.4 0 -2.5 -0.3 -2.5 -0.6z"/>
  <path d="M143 263.1 c0 -0.6 1.1 -2.3 2.5 -3.8 l2.4 -2.8 0.1 3.8 c0 3.3 -0.3 3.7 -2.5 3.7 -1.4 0 -2.5 -0.4 -2.5 -0.9z"/>
  <path d="M155.6 244.8 c4.7 -6.6 18.5 -23.8 19 -23.8 0.2 0 0.4 1.6 0.4 3.5 0 3.1 -0.3 3.5 -2.5 3.5 -2.1 0 -2.5 0.5 -2.5 3 0 2.3 -0.4 3 -2 3 -1.5 0 -2 0.7 -2 2.5 0 1.6 -0.6 2.5 -1.5 2.5 -0.8 0 -1.5 0.9 -1.5 2 0 1.5 -0.7 2 -2.5 2 -2.2 0 -2.5 0.4 -2.5 3.5 0 3.2 -0.2 3.5 -3.1 3.5 l-3.1 0 3.8 -5.2z"/>
  <path d="M866 246.4 c0 -3.9 0.9 -3.8 4 0.6 l2.1 3 -3 0 c-2.9 0 -3.1 -0.3 -3.1 -3.6z"/>
  <path d="M183 211 c3.1 -4.4 4 -4.5 4 -0.6 0 3.3 -0.2 3.6 -3.1 3.6 l-3 0 2.1 -3z"/>
  <path d="M834 207.4 c0 -3.9 0.9 -3.8 4 0.6 l2.1 3 -3 0 c-2.9 0 -3.1 -0.3 -3.1 -3.6z"/>
  <path d="M809.6 186.1 c-1 -1.1 -1.6 -3.1 -1.4 -4.7 l0.3 -2.7 5 4.6 5 4.6 -3.6 0.1 c-2.3 0 -4.2 -0.7 -5.3 -1.9z"/>
  <path d="M209 184.6 c9.7 -9.4 30.3 -26.1 46.8 -38 l5.2 -3.8 0 3.1 c0 2.9 -0.3 3.1 -3.5 3.1 -3.1 0 -3.5 0.3 -3.5 2.5 0 1.8 -0.5 2.5 -2 2.5 -1.1 0 -2 0.7 -2 1.5 0 0.8 -0.8 1.5 -1.9 1.5 -1 0 -2.1 0.9 -2.4 2 -0.3 1.1 -1.2 2 -2.1 2 -0.9 0 -1.6 0.5 -1.6 1 0 0.6 -1.1 1 -2.5 1 -1.8 0 -2.5 0.5 -2.5 2 0 1.5 -0.7 2 -2.4 2 -1.8 0 -2.5 0.6 -2.8 2.3 -0.2 1.7 -1 2.3 -4 2.5 -3.3 0.3 -3.7 0.6 -4 3.5 -0.3 2.9 -0.6 3.2 -4 3.5 -3.4 0.3 -3.8 0.6 -3.8 3.1 0 3.6 -1.7 5.1 -5.9 5.1 l-3.6 0 2.5 -2.4z"/>
  <path d="M798.7 176.3 c-0.4 -0.3 -0.7 -1.7 -0.7 -3 0 -1.9 -0.5 -2.3 -3.1 -2.3 -2.2 0 -3.2 -0.5 -3.6 -1.9 -0.3 -1.1 -1.5 -2.1 -2.7 -2.3 -1.3 -0.2 -2.2 -1.1 -2.4 -2.5 -0.3 -1.7 -1 -2.3 -2.8 -2.3 -2 0 -2.4 -0.5 -2.4 -3.1 l0 -3 2.8 1.9 c4 3 22.2 18.3 22.2 18.8 0 0.7 -6.6 0.5 -7.3 -0.3z"/>
  <path d="M762 145.5 c0 -2.2 -0.4 -2.5 -3.5 -2.5 -1.9 0 -3.5 -0.4 -3.5 -1 0 -0.5 -0.7 -1 -1.5 -1 -0.8 0 -1.5 -0.4 -1.5 -1 0 -0.5 -0.7 -1 -1.5 -1 -0.9 0 -1.5 -0.9 -1.5 -2.5 0 -1.4 0.4 -2.5 0.8 -2.5 1.1 0 17.9 11.7 18.7 13 0.4 0.6 -0.9 1 -2.9 1 -3.2 0 -3.6 -0.3 -3.6 -2.5z"/>
  <path d="M282 130.2 c0 -0.7 12.3 -8.2 13.5 -8.2 0.3 0 0.5 1.1 0.5 2.5 0 2.2 -0.4 2.5 -3.5 2.5 -2.8 0 -3.5 0.4 -3.5 2 0 1.6 -0.7 2 -3.5 2 -1.9 0 -3.5 -0.4 -3.5 -0.8z"/>
  <path d="M729 124.5 c0 -3 0.3 -3 4.1 -0.8 3.8 2.3 3.7 3.3 -0.6 3.3 -3.1 0 -3.5 -0.3 -3.5 -2.5z"/>
  <path d="M300 120.2 c0 -0.8 5.2 -4.2 6.4 -4.2 0.3 0 0.6 1.1 0.6 2.5 0 2.2 -0.4 2.5 -3.5 2.5 -1.9 0 -3.5 -0.4 -3.5 -0.8z"/>
  <path d="M716 119 c0 -0.5 -0.9 -1 -2 -1 -1.5 0 -2 -0.7 -2 -2.5 0 -1.4 0.3 -2.5 0.6 -2.5 1.3 0 10.4 5.4 10.4 6.2 0 0.4 -1.6 0.8 -3.5 0.8 -1.9 0 -3.5 -0.4 -3.5 -1z"/>
  <path d="M316 112 c0 -0.6 1.9 -2 4.3 -3 l4.2 -1.9 0.3 2.1 c0.2 1.1 -0.2 2.5 -1 2.9 -1.9 1.2 -7.8 1.1 -7.8 -0.1z"/>
  <path d="M701.2 112.1 c-0.8 -0.4 -1.2 -1.8 -1 -2.9 l0.3 -2.1 4.3 1.9 c2.3 1 4.2 2.4 4.2 3 0 1.2 -5.9 1.3 -7.8 0.1z"/>
  <path d="M327.2 106.8 c0.3 -0.7 1.9 -1.8 3.6 -2.5 3.1 -1.3 3.2 -1.2 3.2 1.2 0 2.2 -0.4 2.5 -3.6 2.5 -2.3 0 -3.4 -0.4 -3.2 -1.2z"/>
  <path d="M689 104.5 c0 -2.4 0.1 -2.5 3.2 -1.2 4.6 1.9 4.8 3.7 0.4 3.7 -3.2 0 -3.6 -0.3 -3.6 -2.5z"/>
  <path d="M341 101.1 c0 -1.2 0.5 -1.5 6.8 -4 l5.2 -2.1 0 2.5 c0 2 -0.5 2.5 -2.5 2.5 -1.4 0 -2.5 0.5 -2.5 1 0 0.6 -1.6 1 -3.5 1 -1.9 0 -3.5 -0.4 -3.5 -0.9z"/>
  <path d="M677 99.5 c0 -2.4 0.1 -2.5 3.2 -1.2 4.6 1.9 4.8 3.7 0.4 3.7 -3.2 0 -3.6 -0.3 -3.6 -2.5z"/>
  <path d="M354.2 95.8 c0.3 -0.7 1.9 -1.8 3.6 -2.5 3.1 -1.3 3.2 -1.2 3.2 1.2 0 2.2 -0.4 2.5 -3.6 2.5 -2.3 0 -3.4 -0.4 -3.2 -1.2z"/>
  <path d="M365 91.9 c0 -1.1 6 -3.9 8.5 -3.9 2.4 0 1.8 3.7 -0.7 4.4 -3.6 0.9 -7.8 0.7 -7.8 -0.5z"/>
  <path d="M381 86.7 c0 -0.9 4.2 -2.5 11.3 -4.5 13.3 -3.7 13.7 -3.8 13.7 -1.3 0 1.9 -3.4 3.1 -8.6 3.1 -1.3 0 -2.4 0.5 -2.4 1 0 0.6 -1.6 1 -3.5 1 -1.9 0 -3.5 0.5 -3.5 1 0 0.6 -1.6 1 -3.5 1 -2.2 0 -3.5 -0.5 -3.5 -1.3z"/>
  <path d="M633 86 c0 -0.5 -1.6 -1 -3.5 -1 -2.8 0 -3.5 -0.4 -3.5 -2 0 -2.4 0.4 -2.4 8 -0.3 6.8 1.8 8.2 4.3 2.5 4.3 -1.9 0 -3.5 -0.4 -3.5 -1z"/>
  <path d="M615 80 c0 -2.1 1 -2.4 4.8 -1.4 3.6 1 2.7 3.4 -1.3 3.4 -2.8 0 -3.5 -0.4 -3.5 -2z"/>
  <path d="M407 79.7 c0 -1.1 2.5 -2.1 8.9 -3.6 10.8 -2.6 12.1 -2.6 12.1 -0.3 0 1.4 -1.5 2 -6.7 3.1 -11.5 2.4 -14.3 2.5 -14.3 0.8z"/>
  <path d="M597 76 c0 -2.1 1 -2.4 4.8 -1.4 3.6 1 2.7 3.4 -1.3 3.4 -2.8 0 -3.5 -0.4 -3.5 -2z"/>
  <path d="M576.8 74.2 c-8.2 -1.4 -9.8 -1.9 -9.8 -3.4 0 -2.2 -0.7 -2.1 11 -0.3 13.9 2.2 15 2.5 15 4.1 0 1.7 -3.2 1.7 -16.2 -0.4z"/>
  <path d="M443 72.6 c0 -1.3 2.8 -2.6 5.8 -2.6 0.6 0 1.2 0.9 1.2 2 0 1.6 -0.7 2 -3.5 2 -2.3 0 -3.5 -0.5 -3.5 -1.4z"/>
  <path d="M459 70.6 c0 -1.3 2.8 -2.6 5.8 -2.6 0.6 0 1.2 0.9 1.2 2 0 1.6 -0.7 2 -3.5 2 -2.3 0 -3.5 -0.5 -3.5 -1.4z"/>
  <path d="M558 70 c0 -2.1 1 -2.4 4.8 -1.4 3.6 1 2.7 3.4 -1.3 3.4 -2.8 0 -3.5 -0.4 -3.5 -2z"/>
  <path d="M470 69.6 c0 -1.3 2.8 -2.6 5.8 -2.6 0.6 0 1.2 0.9 1.2 2 0 1.6 -0.7 2 -3.5 2 -2.3 0 -3.5 -0.5 -3.5 -1.4z"/>
  <path d="M549 69 c0 -2.1 1 -2.4 4.8 -1.4 3.6 1 2.7 3.4 -1.3 3.4 -2.8 0 -3.5 -0.4 -3.5 -2z"/>
  <path d="M485 68.6 c0 -1.4 2.9 -2.6 6.8 -2.6 1.5 0 2.2 0.6 2.2 2 0 1.7 -0.7 2 -4.5 2 -3.2 0 -4.5 -0.4 -4.5 -1.4z"/>
  <path d="M533 68 c0 -2.1 2.3 -2.6 6.8 -1.4 4.1 1.1 2.6 3.4 -2.3 3.4 -3.8 0 -4.5 -0.3 -4.5 -2z"/>
 </g>
 <g fill="#5392c3">
  <path d="M480.8 957.3 c-1 -0.2 -1.8 -1.1 -1.8 -1.9 0 -1 1.3 -1.4 4.5 -1.4 3.8 0 4.5 0.3 4.5 2 0 1.5 -0.6 2 -2.7 1.9 -1.6 -0.1 -3.6 -0.3 -4.5 -0.6z"/>
  <path d="M539 956 c0 -1.7 0.7 -2 5 -2 3.6 0 5 0.4 5 1.4 0 1.5 -3 2.6 -7.2 2.6 -2.1 0 -2.8 -0.5 -2.8 -2z"/>
  <path d="M468.8 956.3 c-3.6 -0.9 -2 -3.3 2.2 -3.3 3.3 0 4 0.3 4 2 0 2 -2 2.4 -6.2 1.3z"/>
  <path d="M561 954.3 c0 -1.7 0.9 -2.1 6.1 -2.7 8.7 -0.9 9.9 -0.8 9.9 0.8 0 1.6 -1.9 2.1 -10.2 3.1 -5.3 0.7 -5.8 0.6 -5.8 -1.2z"/>
  <path d="M450.5 954.5 c-0.5 -0.2 -2.7 -0.6 -4.7 -1 -2.4 -0.4 -3.8 -1.1 -3.8 -2 0 -1.7 2.2 -1.8 9.4 -0.9 3.6 0.5 4.6 1.1 4.6 2.5 0 1.8 -2.5 2.4 -5.5 1.4z"/>
  <path d="M588 950 c0 -1.7 0.7 -2 4 -2 4.5 0 5.7 2.3 1.8 3.4 -4.2 1.1 -5.8 0.7 -5.8 -1.4z"/>
  <path d="M426.5 950.5 c-0.5 -0.2 -4.5 -1.1 -8.7 -2 -5.3 -1.1 -7.8 -2.1 -7.8 -3.1 0 -1.8 2.4 -1.8 13.2 0.3 7.2 1.4 8.8 2 8.8 3.5 0 1.7 -2.6 2.3 -5.5 1.3z"/>
  <path d="M612 945 c0 -1.6 0.7 -2 3.5 -2 4 0 4.9 2.4 1.3 3.4 -3.8 1 -4.8 0.7 -4.8 -1.4z"/>
  <path d="M391.8 942.3 c-3.3 -0.8 -2 -3.3 1.7 -3.3 2.8 0 3.5 0.4 3.5 2 0 2 -1.4 2.3 -5.2 1.3z"/>
  <path d="M628 941 c0 -1.6 0.7 -2 3.5 -2 4 0 4.9 2.4 1.3 3.4 -3.8 1 -4.8 0.7 -4.8 -1.4z"/>
  <path d="M356.3 930.8 c-4.5 -1.5 -4.3 -3.8 0.2 -3.8 3.1 0 3.5 0.3 3.5 2.5 0 1.4 -0.1 2.5 -0.2 2.4 -0.2 -0.1 -1.8 -0.6 -3.5 -1.1z"/>
  <path d="M689 919.5 c0 -2.2 0.4 -2.5 3.5 -2.5 4.3 0 4.5 1.4 0.5 3.5 -3.8 2 -4 1.9 -4 -1z"/>
  <path d="M311.8 911.4 c-5.5 -2.8 -6.1 -4.4 -1.8 -4.4 4.6 0 8 2 8 4.7 0 2.8 -0.3 2.8 -6.2 -0.3z"/>
  <path d="M293.3 901.4 c-3.5 -1.9 -6.3 -3.9 -6.3 -4.5 0 -0.5 1.6 -0.9 3.5 -0.9 2.8 0 3.5 0.4 3.5 2 0 1.6 0.7 2 3.5 2 3.1 0 3.5 0.3 3.5 2.5 0 1.4 -0.3 2.5 -0.7 2.5 -0.5 0 -3.6 -1.6 -7 -3.6z"/>
  <path d="M275.3 890.8 c-4.2 -2.6 -4.2 -3.8 0.2 -3.8 3.2 0 3.5 0.2 3.5 3 0 1.7 -0.1 3 -0.2 2.9 -0.2 0 -1.8 -1 -3.5 -2.1z"/>
  <path d="M751 886 c0 -2.8 0.3 -3 3.5 -3 4.4 0 4.4 0.9 0 3.8 l-3.5 2.2 0 -3z"/>
  <path d="M257.3 878.7 c-4.2 -2.8 -4.1 -3.7 0.2 -3.7 3.2 0 3.5 0.2 3.5 3 0 1.7 -0.1 3 -0.2 2.9 -0.2 0 -1.8 -1 -3.5 -2.2z"/>
  <path d="M234.8 861.5 c-3.2 -2.5 -5.8 -4.7 -5.8 -5 0 -0.3 1.6 -0.5 3.6 -0.5 2.7 0 3.7 0.5 4.1 2 0.3 1.1 1.4 2 2.4 2 1.4 0 1.9 0.7 1.9 3 0 1.7 -0.1 3 -0.2 3 -0.2 0 -2.9 -2 -6 -4.5z"/>
  <path d="M793.2 854.9 c0.3 -3 0.7 -3.4 3.6 -3.7 2.6 -0.3 3.2 -0.8 3.2 -2.6 0 -3.2 1.9 -4.6 6 -4.6 l3.5 0.1 -5.5 5 c-3 2.7 -6.8 5.9 -8.3 7.1 l-2.8 2 0.3 -3.3z"/>
  <path d="M209.5 839.7 l-5 -4.6 3.6 -0.1 c4.4 0 7.2 2.7 6.7 6.6 l-0.3 2.7 -5 -4.6z"/>
  <path d="M191.1 821.4 l-3.5 -3.9 2.8 -0.3 c3.7 -0.5 4.8 0.8 4.4 4.9 l-0.3 3.3 -3.4 -4z"/>
  <path d="M178.2 806.9 c-6.2 -7.2 -6.3 -7.4 -3.7 -7.7 3.3 -0.4 5.5 1.3 5.5 4.4 0 1.7 0.6 2.4 2 2.4 2.4 0 3.3 1.7 2.8 5.6 -0.3 2.6 -0.6 2.4 -6.6 -4.7z"/>
  <path d="M849 798.4 c0 -2.7 0.5 -3.7 2 -4.1 1.1 -0.3 2 -1.4 2 -2.5 0 -1.1 0.9 -2.2 2 -2.5 1.1 -0.3 2 -1.4 2 -2.5 0 -1.1 0.9 -2.2 2 -2.5 1.1 -0.3 2 -1.4 2 -2.4 0 -1.1 0.7 -1.9 1.5 -1.9 0.8 0 1.5 -0.9 1.5 -2 0 -1.1 0.7 -2.3 1.5 -2.6 0.8 -0.4 1.5 -1.2 1.5 -2 0 -0.8 0.7 -1.4 1.5 -1.4 0.8 0 1.5 -0.9 1.5 -2 0 -1.1 0.7 -2 1.5 -2 0.8 0 1.5 -0.9 1.5 -2 0 -1.6 0.7 -2 3.1 -2 2.4 0 2.9 0.3 2.2 1.3 -0.5 0.6 -4.5 5.9 -8.8 11.7 -8.8 11.7 -19.4 25 -20.1 25 -0.2 0 -0.4 -1.6 -0.4 -3.6z"/>
  <path d="M593 797.7 c-2.5 -0.7 -6.3 -2.6 -8.4 -4.2 -2.1 -1.6 -14.8 -14.2 -28.1 -27.9 l-24.3 -24.9 -4.9 4 c-15.8 13.2 -37.1 23.3 -60.4 28.5 -9.1 2 -13 2.3 -30.4 2.2 -16.7 0 -21.7 -0.4 -30.3 -2.2 -13.4 -2.9 -29.8 -9.1 -39.8 -15 -6.7 -4 -8 -5.2 -8.2 -7.6 -0.3 -2.5 -0.1 -2.8 1.1 -1.8 1.2 1 3.6 -1.5 14.3 -14.5 15.6 -19 15 -18.1 12.7 -19.8 -1.7 -1.3 -1.5 -1.4 1.5 -1.5 2.1 0 5.7 1.3 9.3 3.5 18.3 10.7 39.2 15.6 57.3 13.4 24 -2.9 44.7 -12.9 61.2 -29.5 12.7 -12.8 21.3 -27.1 27.5 -45.9 3 -9.4 3.3 -10.9 3.3 -24.5 0.1 -16.8 -1.8 -25.9 -8.3 -39.5 -12.6 -26.6 -30.9 -44 -58.1 -55.2 -12.5 -5.2 -21.4 -6.7 -35.9 -6 -20.6 1 -30.4 4.3 -55.1 18.7 -1.3 0.8 -2.9 2.1 -3.5 2.8 -0.7 0.8 -2.5 1.2 -4.5 1 l-3.5 -0.3 11.1 -9.1 c19.1 -15.6 32.4 -23.4 65.4 -38.6 40.6 -18.7 56.9 -28.3 75.8 -44.8 17.5 -15.3 35.1 -40 43.6 -61.3 4.5 -11.2 4.9 -10.4 -14.4 -28.1 -9.4 -8.6 -17 -15.9 -17.1 -16.3 0 -0.3 3.5 -1.7 7.8 -3 16.6 -5.2 81.4 -26 113.1 -36.5 18.4 -6 33.5 -10.8 33.6 -10.6 0.3 0.3 -4.1 18.7 -23.3 98.3 -5.1 20.9 -10.6 43.6 -12.2 50.5 -1.7 6.9 -3.5 12.9 -4 13.5 -0.6 0.6 -6.5 -4.6 -16.2 -14.2 l-15.2 -15.2 -5.8 7.9 c-3.2 4.3 -8.9 11.4 -12.6 15.8 -6.5 7.4 -6.8 8.1 -5.3 9.7 1.6 1.5 1.2 2.1 -5.7 8.6 -15.5 14.6 -34.5 28.4 -51.1 37 -4.7 2.4 -8.6 4.4 -8.7 4.4 -0.1 0.1 4.9 5.3 11.1 11.5 26.2 26.6 38.8 54.9 40.3 90.5 1 24.1 -2.5 43.8 -11.3 63.8 -1.9 4.3 -3.4 8.3 -3.4 8.8 0 0.6 12.5 13.8 27.9 29.2 15.3 15.5 28.6 29.8 29.6 31.7 2.3 4.4 3.1 16.3 1.6 22.7 -1.7 7 -7.5 14.2 -14.2 17.6 -6.6 3.4 -17.7 4.5 -24.9 2.4z"/>
  <path d="M167.2 793.5 l-3.3 -4 2.7 -0.3 c3.5 -0.5 4.6 0.8 4.2 4.9 l-0.3 3.4 -3.3 -4z"/>
  <path d="M159.8 784 l-2.8 -3.5 2.6 -0.3 c3.3 -0.4 3.6 -0.1 3.2 3.9 l-0.3 3.4 -2.7 -3.5z"/>
  <path d="M152.9 774.4 c-0.9 -1.1 -2.6 -3.4 -3.8 -5.1 l-2.2 -3.3 3 0 c2 0 3.1 0.5 3.1 1.4 0 0.8 0.5 1.6 1.1 1.8 0.6 0.2 0.9 1.9 0.7 3.7 -0.3 3.2 -0.4 3.2 -1.9 1.5z"/>
  <path d="M889 742.5 c0 -3.2 0.2 -3.5 3 -3.5 l3 0 -2.2 3.5 c-2.9 4.4 -3.8 4.4 -3.8 0z"/>
  <path d="M117.5 717 c-2 -3.8 -1.9 -4 1 -4 2.2 0 2.5 0.4 2.5 3.5 0 4.3 -1.4 4.5 -3.5 0.5z"/>
  <path d="M110.5 702 c-2 -3.8 -1.9 -4 1 -4 2.2 0 2.5 0.4 2.5 3.5 0 4.3 -1.4 4.5 -3.5 0.5z"/>
  <path d="M104 687 c-1.3 -2.4 -8 -18 -8 -18.6 0 -0.2 1.1 -0.4 2.5 -0.4 2.2 0 2.5 0.4 2.5 3.5 0 2.4 0.5 3.5 1.5 3.5 1 0 1.5 1.1 1.5 3.5 0 2.4 0.5 3.5 1.5 3.5 1 0 1.5 1.1 1.5 3.5 0 3.9 -1.4 4.6 -3 1.5z"/>
  <path d="M919 682.1 c0 -4.5 1 -6.1 3.7 -6.1 1.4 0 2.3 0.3 2.1 0.8 -0.2 0.4 -1 2.4 -1.8 4.5 -1.7 4.4 -4 4.9 -4 0.8z"/>
  <path d="M924 669.5 c0 -3.1 0.3 -3.5 2.6 -3.5 2.1 0 2.5 0.3 1.9 1.8 -0.4 0.9 -1 2.5 -1.2 3.5 -1 3.2 -3.3 1.9 -3.3 -1.8z"/>
  <path d="M94.7 665.3 c-0.2 -1 -0.8 -2.6 -1.2 -3.5 -0.6 -1.5 -0.2 -1.8 1.9 -1.8 2.3 0 2.6 0.4 2.6 3.5 0 3.7 -2.3 5 -3.3 1.8z"/>
  <path d="M927 662.4 c0 -1.5 0.5 -4.4 1.2 -6.5 0.9 -3 1.6 -3.9 3.4 -3.9 l2.2 0 -2.1 6.5 c-2.1 6.6 -4.7 8.7 -4.7 3.9z"/>
  <path d="M87.2 642.7 c-3.7 -12 -3.8 -12.7 -1.3 -12.7 2 0 3.1 2.5 3.1 7.3 0 1.5 0.5 2.7 1 2.7 0.6 0 1 1.4 1 3 0 1.7 0.5 3 1 3 0.6 0 1 1.6 1 3.5 0 6.8 -2.6 3.9 -5.8 -6.8z"/>
  <path d="M934 640.5 c0 -1.9 0.5 -3.5 1 -3.5 0.6 0 1 -1.6 1 -3.5 0 -3 0.3 -3.5 2.4 -3.5 l2.4 0 -2.1 7 c-2.2 7.7 -4.7 9.5 -4.7 3.5z"/>
  <path d="M81.3 622.5 c-1.1 -3.3 -1 -3.5 1.3 -3.5 2.1 0 2.4 0.5 2.4 3.5 0 2.2 -0.5 3.5 -1.3 3.5 -0.8 0 -1.8 -1.6 -2.4 -3.5z"/>
  <path d="M78.1 609 c-2.2 -9.4 -6.4 -33.2 -7.6 -43.2 -0.6 -5.2 -0.5 -5.8 1.2 -5.8 1.6 0 2 1.7 3.6 12.9 1 7.1 2.9 18.2 4.3 24.7 3.7 17.1 4 20.4 2.1 20.4 -1.1 0 -2.1 -2.5 -3.6 -9z"/>
  <path d="M942 609.5 c0 -2.8 0.4 -3.5 2 -3.5 2.1 0 2.4 1 1.4 4.8 -1 3.6 -3.4 2.7 -3.4 -1.3z"/>
  <path d="M944 600.5 c0 -2.8 0.4 -3.5 2 -3.5 2.1 0 2.4 1 1.4 4.8 -1 3.6 -3.4 2.7 -3.4 -1.3z"/>
  <path d="M946.2 589.8 c0.3 -2.4 1.3 -10.9 2.4 -19 1.6 -12.7 2.1 -14.8 3.6 -14.8 2.2 0 2.2 -0.4 -0.2 18.1 -2.5 18.7 -2.8 19.9 -4.7 19.9 -1.2 0 -1.4 -1 -1.1 -4.2z"/>
  <path d="M69.6 554.8 c-1.2 -4.5 -0.7 -6.8 1.4 -6.8 1.7 0 2 0.7 2 4.5 0 4.9 -2.3 6.4 -3.4 2.3z"/>
  <path d="M951 550.5 c0 -3.8 0.3 -4.5 2 -4.5 2.1 0 2.6 2.3 1.4 6.8 -1.1 4.1 -3.4 2.6 -3.4 -2.3z"/>
  <path d="M68.6 541.8 c-0.3 -1.3 -0.6 -3.8 -0.6 -5.5 0 -2.6 0.4 -3.3 2 -3.3 1.8 0 2 0.7 2 5.5 0 4 -0.4 5.5 -1.4 5.5 -0.7 0 -1.6 -1 -2 -2.2z"/>
  <path d="M952 535 c0 -5.3 0.2 -6 2 -6 1.6 0 2 0.7 2 3.8 0 5.2 -1 8.2 -2.6 8.2 -1 0 -1.4 -1.6 -1.4 -6z"/>
  <path d="M952 493 c0 -4.5 2.3 -5.7 3.4 -1.7 1.1 4.1 0.7 5.7 -1.4 5.7 -1.7 0 -2 -0.7 -2 -4z"/>
  <path d="M68 486.3 c0 -4.3 1.1 -7.3 2.6 -7.3 1 0 1.4 1.4 1.4 5 0 4.3 -0.3 5 -2 5 -1.5 0 -2 -0.7 -2 -2.7z"/>
  <path d="M69 474.3 c0 -3.4 1.2 -6.3 2.6 -6.3 1 0 1.4 1.3 1.4 4 0 3.3 -0.3 4 -2 4 -1.2 0 -2 -0.7 -2 -1.7z"/>
  <path d="M70 464.6 c0 -1.6 1.7 -15.2 2.6 -20.3 0.3 -2 1.1 -3.3 1.9 -3.3 1.8 0 1.8 0.6 0.3 14.3 -1 9.3 -1.4 10.7 -3 10.7 -1 0 -1.8 -0.6 -1.8 -1.4z"/>
  <path d="M75 429.3 c0 -3.4 1.2 -6.3 2.6 -6.3 1 0 1.4 1.3 1.4 4 0 3.3 -0.3 4 -2 4 -1.2 0 -2 -0.7 -2 -1.7z"/>
  <path d="M943.2 421.2 c-1.6 -7.8 -1.5 -11.2 0.2 -11.2 1.4 0 2.2 2.7 4.1 13.3 0.6 3.2 0.5 3.7 -1.2 3.7 -1.5 0 -2.1 -1.2 -3.1 -5.8z"/>
  <path d="M79 410.7 c0 -1.5 6 -23.9 8.7 -32.4 1.8 -5.6 4.3 -7.2 4.3 -2.7 0 3.5 -2.1 10.4 -3.2 10.4 -0.4 0 -0.8 1.6 -0.8 3.5 0 1.9 -0.4 3.5 -1 3.5 -0.5 0 -1 1 -1 2.3 0 1.2 -0.7 5.5 -1.7 9.5 -1.3 5.7 -2 7.2 -3.5 7.2 -1 0 -1.8 -0.6 -1.8 -1.3z"/>
  <path d="M939.6 405.9 c-1 -5.1 -0.7 -7.9 0.8 -7.9 0.8 0 1.8 1.9 2.5 4.4 1.5 6 1.4 6.6 -0.8 6.6 -1.3 0 -2 -1 -2.5 -3.1z"/>
  <path d="M937 393.5 c0 -1.9 -0.4 -3.5 -1 -3.5 -0.5 0 -1 -1.6 -1 -3.5 0 -5.6 2.5 -4.3 4.4 2.3 2.1 7.5 2 8.2 -0.4 8.2 -1.6 0 -2 -0.7 -2 -3.5z"/>
  <path d="M931 374.1 c0 -1.6 -0.5 -3.1 -1.1 -3.3 -0.6 -0.2 -1.3 -2.5 -1.6 -5.1 -0.4 -3.6 -0.2 -4.7 0.9 -4.7 0.8 0 2.4 3 4 8 l2.6 8 -2.4 0 c-2 0 -2.4 -0.5 -2.4 -2.9z"/>
  <path d="M93.3 361.8 c1.9 -4.6 3.7 -4.8 3.7 -0.4 0 3.2 -0.3 3.6 -2.5 3.6 -2.4 0 -2.5 -0.1 -1.2 -3.2z"/>
  <path d="M96.3 353.8 c1.9 -4.6 3.7 -4.8 3.7 -0.4 0 3.2 -0.3 3.6 -2.5 3.6 -2.4 0 -2.5 -0.1 -1.2 -3.2z"/>
  <path d="M922 348.4 c0 -4.4 1.8 -4.2 3.7 0.4 1.3 3.1 1.2 3.2 -1.2 3.2 -2.2 0 -2.5 -0.4 -2.5 -3.6z"/>
  <path d="M100.3 343.8 c1.9 -4.6 3.7 -4.8 3.7 -0.4 0 3.2 -0.3 3.6 -2.5 3.6 -2.4 0 -2.5 -0.1 -1.2 -3.2z"/>
  <path d="M918 338.4 c0 -4.4 1.8 -4.2 3.7 0.4 1.3 3.1 1.2 3.2 -1.2 3.2 -2.2 0 -2.5 -0.4 -2.5 -3.6z"/>
  <path d="M906 312.5 c0 -4.3 1 -4.4 3.3 -0.6 2.2 3.8 2.2 4.1 -0.8 4.1 -2.2 0 -2.5 -0.4 -2.5 -3.5z"/>
  <path d="M898 297.5 c0 -4.3 1.4 -4.5 3.5 -0.5 2 3.8 1.9 4 -1 4 -2.2 0 -2.5 -0.4 -2.5 -3.5z"/>
  <path d="M127 289.5 c0 -1.4 3.2 -6.5 4 -6.5 0.6 0 1 1.6 1 3.5 0 3.1 -0.3 3.5 -2.5 3.5 -1.4 0 -2.5 -0.2 -2.5 -0.5z"/>
  <path d="M133.1 278.5 c1.2 -1.9 2.5 -3.5 3 -3.5 0.5 0 0.9 1.6 0.9 3.5 0 3.2 -0.2 3.5 -3 3.5 l-2.9 0 2 -3.5z"/>
  <path d="M886 276.5 c0 -1.9 0.4 -3.5 0.9 -3.5 0.5 0 1.8 1.6 3 3.5 l2 3.5 -2.9 0 c-2.8 0 -3 -0.3 -3 -3.5z"/>
  <path d="M144.2 261 c1.8 -2.7 3.6 -5 4.1 -5 0.4 0 0.7 1.6 0.7 3.5 0 1.9 -0.4 3.5 -1 3.5 -0.5 0 -1 0.7 -1 1.5 0 1 -1 1.5 -3 1.5 l-3 0 3.2 -5z"/>
  <path d="M872 256 c0 -2.3 -0.4 -3 -2 -3 -1.6 0 -2 -0.7 -2 -3.6 0 -4.4 0.9 -3.9 6 3.7 l4.1 5.9 -3.1 0 c-2.7 0 -3 -0.3 -3 -3z"/>
  <path d="M156.1 244.3 c3.8 -5.5 18.9 -24.3 19.5 -24.3 0.2 0 0.4 1.6 0.4 3.5 0 3.1 -0.3 3.5 -2.5 3.5 -2.1 0 -2.5 0.5 -2.5 3 0 2.3 -0.4 3 -2 3 -1.5 0 -2 0.7 -2 2.5 0 1.6 -0.6 2.5 -1.5 2.5 -0.8 0 -1.5 0.9 -1.5 2 0 1.5 -0.7 2 -2.5 2 -2.2 0 -2.5 0.4 -2.5 3.5 0 3.2 -0.2 3.5 -3 3.5 l-3.1 0 3.2 -4.7z"/>
  <path d="M847.7 226.3 c-0.4 -0.3 -0.7 -2.2 -0.7 -4.1 0 -3 0.2 -3.3 1.5 -2.2 0.9 0.7 2.5 2.6 3.6 4.2 l2 2.8 -2.9 0 c-1.6 0 -3.2 -0.3 -3.5 -0.7z"/>
  <path d="M183.8 210.3 c1.1 -1.6 2.9 -3.7 4.1 -4.7 2.1 -1.9 2.1 -1.9 2.1 1.5 0 4.3 -1.5 5.9 -5.3 5.9 l-2.8 0 1.9 -2.7z"/>
  <path d="M832.2 208.8 c-0.7 -0.7 -1.2 -2.8 -1.2 -4.7 0 -3.4 0 -3.4 2.1 -1.5 1.2 1 3 3.1 4.1 4.7 l1.9 2.7 -2.8 0 c-1.6 0 -3.4 -0.5 -4.1 -1.2z"/>
  <path d="M777 157.5 c0 -0.8 -0.9 -1.5 -2 -1.5 -1.1 0 -2 -0.7 -2 -1.5 0 -0.8 -0.9 -1.5 -2 -1.5 -1.1 0 -2 -0.4 -2 -1 0 -0.5 -0.7 -1 -1.5 -1 -0.9 0 -1.5 -0.9 -1.5 -2.5 0 -2.2 -0.4 -2.5 -3.5 -2.5 -3.2 0 -3.5 -0.2 -3.5 -3.1 l0 -3 6.8 4.8 c9.2 6.4 18.2 13.3 18.2 13.9 0 0.2 -1.6 0.4 -3.5 0.4 -2.4 0 -3.5 -0.5 -3.5 -1.5z"/>
  <path d="M257.5 146 c0.4 -0.6 4 -3.3 8.1 -6 l7.4 -5.1 0 3.1 c0 2 -0.5 3 -1.5 3 -0.8 0 -1.5 0.5 -1.5 1 0 0.6 -1.3 1 -3 1 -2.3 0 -3 0.4 -3 2 0 1.6 -0.7 2 -3.6 2 -2.1 0 -3.3 -0.4 -2.9 -1z"/>
  <path d="M274 135.1 c0 -0.9 10 -7.1 11.4 -7.1 0.3 0 0.6 1.1 0.6 2.5 0 2 -0.5 2.5 -2.5 2.5 -1.6 0 -2.5 0.6 -2.5 1.5 0 1 -1.1 1.5 -3.5 1.5 -1.9 0 -3.5 -0.4 -3.5 -0.9z"/>
  <path d="M744 133.5 c0 -3 0.3 -3 4.1 -0.8 3.8 2.3 3.7 3.3 -0.6 3.3 -3.1 0 -3.5 -0.3 -3.5 -2.5z"/>
  <path d="M734 128 c0 -1.6 -0.7 -2 -3.5 -2 -3.1 0 -3.5 -0.3 -3.5 -2.5 0 -1.4 0.2 -2.5 0.5 -2.5 1.2 0 13.5 7.5 13.5 8.2 0 0.4 -1.6 0.8 -3.5 0.8 -2.8 0 -3.5 -0.4 -3.5 -2z"/>
  <path d="M293 124.1 c0 -0.8 14.3 -9.1 15.6 -9.1 0.2 0 0.4 1.1 0.4 2.5 0 2.2 -0.4 2.5 -3.5 2.5 -2.8 0 -3.5 0.4 -3.5 1.9 0 1 -0.7 2.2 -1.6 2.5 -2.4 0.9 -7.4 0.7 -7.4 -0.3z"/>
  <path d="M709.3 116.3 c-1.3 -0.5 -1.9 -5.3 -0.7 -5.3 1.3 0 8.4 4.4 8.4 5.2 0 0.9 -5.7 1 -7.7 0.1z"/>
  <path d="M312 114 c0 -0.6 1.9 -2 4.3 -3 l4.2 -1.9 0.3 2.1 c0.2 1.1 -0.2 2.5 -1 2.9 -1.9 1.2 -7.8 1.1 -7.8 -0.1z"/>
  <path d="M323 109 c0 -0.8 5.1 -4 6.5 -4 0.3 0 0.5 1.1 0.5 2.5 0 2.2 -0.4 2.5 -3.5 2.5 -1.9 0 -3.5 -0.4 -3.5 -1z"/>
  <path d="M694.3 109.3 c-0.7 -0.2 -1.3 -1.1 -1.3 -1.9 0 -0.9 -1.1 -1.4 -3.4 -1.4 -1.9 0 -4.1 -0.7 -5 -1.5 -0.8 -0.8 -2.4 -1.5 -3.5 -1.5 -1.2 0 -2.1 -0.4 -2.1 -1 0 -0.5 -1.1 -1 -2.5 -1 -1.4 0 -2.5 -0.4 -2.5 -1 0 -0.5 -1.1 -1 -2.5 -1 -2 0 -2.5 -0.5 -2.5 -2.5 l0 -2.4 4.4 1.6 c10.9 4.1 28 11.9 28.4 13.1 0.4 1.2 -4.9 1.6 -7.5 0.5z"/>
  <path d="M332.2 104.8 c0.4 -1.2 5.4 -3.5 18.6 -8.7 l5.2 -2.1 0 2.5 c0 2 -0.5 2.5 -2.5 2.5 -1.4 0 -2.5 0.5 -2.5 1 0 0.6 -1.1 1 -2.5 1 -1.4 0 -2.5 0.5 -2.5 1 0 0.6 -0.9 1 -2.1 1 -1.1 0 -2.7 0.7 -3.5 1.5 -1.9 1.9 -8.8 2.1 -8.2 0.3z"/>
  <path d="M357.2 94.8 c0.3 -0.7 3.2 -2.3 6.6 -3.5 l6.2 -2.2 0 2.3 c0 1.8 -0.8 2.5 -3.9 3.4 -5.1 1.6 -9.4 1.5 -8.9 0z"/>
  <path d="M652.3 92.7 c-4.6 -1.5 -6.3 -2.6 -6.3 -3.9 0 -2.4 0.9 -2.3 10.7 0.9 4.7 1.5 8.3 3.3 8.3 4 0 1.9 -5.4 1.5 -12.7 -1z"/>
  <path d="M372 89.6 c0 -0.8 4.4 -2.6 12.4 -5 6.8 -2 12.8 -3.6 13.5 -3.6 0.6 0 1.1 0.9 1.1 2 0 1.6 -0.7 2 -3.5 2 -1.9 0 -3.5 0.5 -3.5 1 0 0.6 -1.6 1 -3.5 1 -1.9 0 -3.5 0.4 -3.5 0.8 0 1.1 -6.9 3.2 -10.4 3.2 -1.5 0 -2.6 -0.6 -2.6 -1.4z"/>
  <path d="M632.8 86.8 c-2.1 -0.6 -3.8 -1.4 -3.8 -1.9 0 -0.5 -1.1 -0.9 -2.4 -0.9 -1.4 0 -8 -1.3 -14.8 -3 -12.7 -3.1 -40.1 -8 -44.4 -8 -1.7 0 -2.4 -0.5 -2.4 -2 0 -2.5 -0.5 -2.5 17.9 0.5 28 4.6 60.1 12.7 60.1 15.2 0 1.5 -4.6 1.6 -10.2 0.1z"/>
  <path d="M403 80.6 c0 -0.7 1 -1.6 2.3 -2 4.1 -1.1 5.7 -0.7 5.7 1.4 0 1.7 -0.7 2 -4 2 -2.7 0 -4 -0.4 -4 -1.4z"/>
  <path d="M416 77.6 c0 -1.3 2.8 -2.6 5.8 -2.6 0.6 0 1.2 0.9 1.2 2 0 1.6 -0.7 2 -3.5 2 -2.3 0 -3.5 -0.5 -3.5 -1.4z"/>
  <path d="M426 75.6 c0 -1.6 4.7 -2.8 20.5 -5 20.7 -2.9 21.5 -3 21.5 -0.8 0 1.7 -1 2 -7.2 2.7 -4 0.3 -12.5 1.5 -18.8 2.6 -13.9 2.3 -16 2.3 -16 0.5z"/>
  <path d="M556 70 c0 -2.1 1.6 -2.5 5.8 -1.4 3.9 1.1 2.7 3.4 -1.8 3.4 -3.3 0 -4 -0.3 -4 -2z"/>
  <path d="M471 69.6 c0 -1.5 3 -2.6 7.3 -2.6 2 0 2.7 0.5 2.7 2 0 1.7 -0.7 2 -5 2 -3.6 0 -5 -0.4 -5 -1.4z"/>
  <path d="M545 69 c0 -1.5 0.7 -2 2.8 -2 4.2 0 7.2 1.1 7.2 2.6 0 1 -1.4 1.4 -5 1.4 -4.3 0 -5 -0.3 -5 -2z"/>
  <path d="M488 68.6 c0 -1.6 3 -2.6 8.3 -2.6 3 0 3.7 0.4 3.7 2 0 1.8 -0.7 2 -6 2 -4.4 0 -6 -0.4 -6 -1.4z"/>
  <path d="M527 68 c0 -1.6 0.7 -2 3.8 -2 5.2 0 8.2 1 8.2 2.6 0 1 -1.6 1.4 -6 1.4 -5.3 0 -6 -0.2 -6 -2z"/>
 </g>
 <g fill="#15375c">
  <path d="M471.5 956.5 c-53.8 -4.9 -107.6 -19.8 -154 -42.6 -8.8 -4.4 -18.2 -9.2 -21 -10.8 -2.7 -1.7 -6.3 -3.6 -8 -4.4 -1.6 -0.8 -5.4 -3.1 -8.4 -5.1 -2.9 -2 -5.5 -3.6 -5.7 -3.6 -0.5 0 -7.4 -4.7 -19.6 -13.2 -46.3 -32.4 -91.3 -81.8 -124.1 -136.1 -7.6 -12.6 -25.7 -48.8 -25.7 -51.3 0 -0.4 -1 -2.8 -2.1 -5.3 -1.2 -2.5 -2.8 -5.9 -3.5 -7.6 -0.7 -1.6 -2 -4.6 -2.8 -6.7 -0.9 -2 -1.6 -4.2 -1.6 -5 0 -0.8 -0.4 -1.8 -0.9 -2.4 -1 -1 -8.7 -25.5 -12.9 -40.9 -2.2 -7.7 -6.1 -27.1 -8.1 -40 -3.7 -23.7 -4.5 -36.1 -4.5 -70.5 0 -28.5 0.3 -36.2 2.2 -51.5 5.2 -42 13.7 -75.6 28.7 -113.5 5.5 -14 21.9 -47.9 27 -56 1.4 -2.2 2.5 -4.3 2.5 -4.6 0 -0.4 1.1 -2.2 2.5 -4 1.4 -1.8 2.5 -3.5 2.5 -3.9 0 -0.6 17.7 -27.3 21.2 -32 33.4 -43.9 65.9 -75.1 109.3 -104.6 6.1 -4.1 11.7 -7.8 12.5 -8.2 0.8 -0.4 3.3 -1.8 5.5 -3.2 2.2 -1.4 5.6 -3.4 7.5 -4.4 1.9 -1.1 6.4 -3.6 10 -5.6 5.9 -3.2 16.5 -8.5 27.6 -13.5 38.1 -17.5 82.8 -30.3 125 -35.9 90 -11.9 181.8 3.6 262.9 44.6 28.5 14.4 54.5 31.7 81.4 54.1 12.8 10.7 43.2 40.6 51.1 50.4 13.1 16.1 18.8 23.5 23.7 30.6 11.7 16.9 17.3 25.1 17.3 25.6 0 0.3 1.3 2.4 2.9 4.8 1.5 2.4 5.4 9.3 8.6 15.3 3.2 6.1 6.9 13 8.2 15.4 1.3 2.5 4.3 8.8 6.8 14.2 21.6 47.1 33.2 90.9 38.7 146.4 1.6 16.7 1.6 67.4 -0.1 82.5 -1.8 16.6 -4.9 38.3 -6.8 47 -0.8 4.1 -1.9 9.4 -2.4 11.7 -1 4.9 -3.6 15.5 -4.9 19.8 -3.6 11.7 -11.2 34.3 -12 35.7 -0.6 1 -1 2.3 -1 2.8 0 0.6 -1.1 3.5 -2.4 6.3 -1.3 2.9 -4.6 10.4 -7.2 16.7 -5.7 13.6 -17.5 37.3 -22.5 45 -2 3 -5.8 9.1 -8.4 13.5 -14.5 23.7 -53.5 70.8 -72.2 87.3 -19.5 17.1 -24.8 21.6 -35.8 29.8 -33.6 25.2 -65.2 43 -104 58.5 -13.4 5.4 -35.8 12.8 -48 15.8 -4.4 1.1 -10.7 2.7 -14 3.5 -13.8 3.5 -44.8 8.2 -62.5 9.6 -16.6 1.3 -62.2 1 -78.5 -0.5z m143.5 -164.3 c12.7 -6.3 18.5 -22.6 12.4 -34.5 -0.9 -1.7 -14.9 -16.5 -31 -32.9 l-29.2 -29.6 4.3 -8.9 c17.8 -36.5 17.6 -80.4 -0.5 -116.3 -7.9 -15.7 -26.4 -38.3 -38.9 -47.5 -4.2 -3.1 -5.1 -4.5 -2.8 -4.5 2.4 0 20.3 -9.7 30.4 -16.4 11.6 -7.7 23.1 -16.8 33.5 -26.5 l7.6 -7.1 33.8 33.4 c18.7 18.3 35.3 34 37.1 34.9 1.8 1 4.2 1.7 5.4 1.7 3.7 0 10.3 -3.8 12.6 -7.2 1.4 -2.2 6.2 -20.2 14.7 -55.3 6.9 -28.6 19.6 -81 28.1 -116.5 29.6 -122.2 27.7 -112 22.1 -117.6 -4.5 -4.5 -7.6 -4.4 -21 0.5 -5.8 2.2 -17 6 -24.8 8.5 -7.9 2.5 -31.2 10.1 -51.8 16.9 -20.6 6.9 -53.9 17.7 -74 24.2 -56.4 18.1 -106.2 34.6 -109.2 36.1 -5.3 2.7 -7.7 12.3 -4.3 17.1 0.9 1.2 13.1 12.2 27.1 24.5 32.5 28.3 30.6 26.6 29.8 28.1 -2.1 3.5 -14.2 17.2 -20.8 23.5 -18.7 17.7 -32.6 25.8 -79.1 45.9 -19 8.3 -32.4 15 -43.6 21.9 -46.7 28.9 -75.7 68.3 -84 114.4 -2.7 14.7 -2.9 37 -0.4 51.5 9.8 57.6 53.7 103.4 110.7 115.6 15.1 3.3 40.2 3.3 54.7 0.1 23.7 -5.3 45.3 -15.6 61.1 -29.1 3 -2.6 6 -5 6.7 -5.4 0.7 -0.5 4.5 2.8 10 8.5 17.6 18.6 41.9 43.1 45.7 46.1 7.7 6.2 17.6 6.9 27.6 1.9z"/>
  <path d="M433.3 732.9 c-22.9 -2.9 -41.3 -12 -57.9 -28.4 -17.9 -17.7 -27.5 -35.6 -31.5 -58.9 -1.8 -10.9 -0.6 -32.2 2.5 -43 5.3 -18.6 15.5 -35.6 28.8 -48.1 6.8 -6.3 12.8 -11.5 12.8 -11 0 0.2 3.5 -1.7 7.7 -4.1 14.5 -8.3 27.5 -12.1 45.1 -13.3 21.7 -1.5 36.6 2 56.7 13.3 23.7 13.2 42.5 37.7 49.7 64.6 2 7.4 2.3 10.8 2.2 26 0 17.1 -0.1 17.8 -3.3 27.5 -6.3 18.8 -14.8 33.1 -27.5 45.9 -16.5 16.6 -37.2 26.6 -61.1 29.5 -10 1.2 -15.1 1.2 -24.2 0z"/>
 </g>
</svg>